#!OML:ASF E:\Steps\Project 1\Capture day 1\Session 2\Subject.ASF
:FULLY-SPECIFIED
:DEGREES
63
root 16.7031 17.9703 20.7214 -155.231 -1.0406 175.84
lowerback -31.1103 -2.62473 -9.89057
upperback -0.159003 -0.365597 -0.652493
thorax 16.148 -1.14685 4.40583
lowerneck -6.70143 -1.85142 -0.238637
upperneck 5.16155 -2.76323 3.78902
head 2.88865 -1.26767 1.14091
rclavicle -1.14301e-015 2.54444e-014
rhumerus -38.3795 -19.0464 -76.2887
rradius 32.9351
rwrist -1.57971
rhand -4.3783 -54.6414
rfingers 7.12502
rthumb 21.3906 -83.4806
lclavicle -1.14301e-015 2.54444e-014
lhumerus -31.5374 7.85286 79.04
lradius 21.9009
lwrist -5.98853
lhand -21.5017 -12.6732
lfingers 7.12502
lthumb 4.8899 17.2503
rfemur -20.8192 4.28661 18.6521
rtibia 5.76681
rfoot -17.4013 -2.50312
rtoes -22.8054
lfemur -22.7668 -8.55679 -24.3395
ltibia 9.06452
lfoot -7.49735 -2.27066
ltoes -30.4964
64
root 16.7018 17.9706 20.7183 -155.303 -1.04903 175.889
lowerback -31.1071 -2.59322 -9.77909
upperback -0.114581 -0.353238 -0.655633
thorax 16.2004 -1.1332 4.34942
lowerneck -6.78703 -1.82639 -0.20216
upperneck 5.19471 -2.72992 3.73051
head 2.91337 -1.25058 1.11656
rclavicle -9.54166e-015 3.4191e-014
rhumerus -38.4294 -19.006 -76.2933
rradius 32.9259
rwrist -1.48613
rhand -4.36913 -54.8742
rfingers 7.12502
rthumb 21.3995 -83.7125
lclavicle -9.54166e-015 3.4191e-014
lhumerus -31.5762 7.98225 78.9504
lradius 21.7109
lwrist -6.07921
lhand -21.3205 -12.5895
lfingers 7.12502
lthumb 5.06489 17.33
rfemur -20.6834 4.31077 18.6931
rtibia 5.68026
rfoot -17.3596 -2.42724
rtoes -22.3741
lfemur -22.6481 -8.6934 -24.2585
ltibia 8.99937
lfoot -7.48261 -2.11678
ltoes -29.7615
65
root 16.7054 17.9705 20.7223 -155.314 -1.12999 175.922
lowerback -31.0512 -2.59615 -9.7809
upperback -0.118199 -0.36448 -0.626969
thorax 16.1732 -1.13669 4.37904
lowerneck -6.79539 -1.85171 -0.163223
upperneck 5.21658 -2.76441 3.68189
head 2.92131 -1.26801 1.0922
rclavicle 1.32192e-014 3.33958e-014
rhumerus -38.5274 -18.8748 -76.2944
rradius 32.9604
rwrist -1.64041
rhand -4.31552 -54.8646
rfingers 7.12502
rthumb 21.4509 -83.6969
lclavicle 1.32192e-014 3.33958e-014
lhumerus -31.5923 8.02005 78.9101
lradius 21.4268
lwrist -6.20018
lhand -21.1581 -12.7192
lfingers 7.12502
lthumb 5.22174 17.1965
rfemur -20.6507 4.34525 18.762
rtibia 5.65094
rfoot -17.3167 -2.37519
rtoes -21.0927
lfemur -22.6734 -8.62636 -24.2057
ltibia 9.03198
lfoot -7.48411 -2.22251
ltoes -29.9227
66
root 16.705 17.9709 20.7235 -155.319 -1.10736 175.924
lowerback -31.0593 -2.55511 -9.7575
upperback -0.107136 -0.313632 -0.642715
thorax 16.183 -1.11257 4.37067
lowerneck -6.72418 -1.87222 -0.242948
upperneck 5.10232 -2.792 3.83158
head 2.87454 -1.28129 1.15395
rclavicle 4.27387e-015 -5.24792e-014
rhumerus -38.5917 -18.723 -76.3392
rradius 32.9985
rwrist -1.94109
rhand -4.30567 -55.138
rfingers 7.12502
rthumb 21.4604 -83.9693
lclavicle 4.27387e-015 -5.24792e-014
lhumerus -31.5932 8.07951 78.8724
lradius 21.1176
lwrist -6.4463
lhand -21.0583 -12.7405
lfingers 7.12502
lthumb 5.31801 17.1727
rfemur -20.6643 4.41794 18.741
rtibia 5.67551
rfoot -17.3926 -2.35245
rtoes -20.7044
lfemur -22.6658 -8.67013 -24.2065
ltibia 9.00905
lfoot -7.45852 -2.11135
ltoes -30.1412
67
root 16.7088 17.9713 20.7281 -155.259 -1.15198 175.931
lowerback -31.0262 -2.5563 -9.77241
upperback -0.160612 -0.325102 -0.63399
thorax 16.1048 -1.11648 4.38327
lowerneck -6.58391 -1.867 -0.409015
upperneck 4.93566 -2.78253 4.08028
head 2.80034 -1.27669 1.26519
rclavicle -8.19987e-015 7.55382e-015
rhumerus -38.7001 -18.7042 -76.2963
rradius 32.9536
rwrist -2.00059
rhand -4.53329 -55.4049
rfingers 7.12502
rthumb 21.2418 -84.261
lclavicle -8.19987e-015 7.55382e-015
lhumerus -31.7125 8.15211 78.8253
lradius 20.9249
lwrist -6.57837
lhand -20.9645 -12.797
lfingers 7.12502
lthumb 5.40858 17.114
rfemur -20.7774 4.49502 18.7675
rtibia 5.75539
rfoot -17.5734 -2.50402
rtoes -20.724
lfemur -22.7939 -8.55393 -24.1978
ltibia 9.08604
lfoot -7.44517 -2.22566
ltoes -30.7587
68
root 16.7106 17.9715 20.728 -155.313 -1.2098 175.957
lowerback -30.9581 -2.58204 -9.74234
upperback -0.169319 -0.382512 -0.582555
thorax 16.0735 -1.1378 4.40203
lowerneck -6.49907 -1.87365 -0.572043
upperneck 4.86537 -2.77734 4.15656
head 2.7655 -1.27626 1.31938
rclavicle -4.37326e-015 1.66979e-014
rhumerus -38.753 -18.7273 -76.1614
rradius 32.8023
rwrist -1.81601
rhand -4.73473 -55.4079
rfingers 7.12502
rthumb 21.0483 -84.2856
lclavicle -4.37326e-015 1.66979e-014
lhumerus -31.8936 8.36156 78.7864
lradius 20.8019
lwrist -6.67726
lhand -20.9349 -12.8618
lfingers 7.12502
lthumb 5.43719 17.0485
rfemur -20.7364 4.38217 18.841
rtibia 5.80633
rfoot -17.6308 -2.49403
rtoes -20.6041
lfemur -22.7545 -8.49646 -24.1673
ltibia 9.13516
lfoot -7.45171 -2.33501
ltoes -30.4234
69
root 16.7112 17.9699 20.724 -155.33 -1.25542 176.018
lowerback -31.0267 -2.62369 -9.64503
upperback -0.123303 -0.463556 -0.513134
thorax 16.175 -1.1704 4.39293
lowerneck -6.60107 -1.88275 -0.687799
upperneck 4.8836 -2.77269 4.10401
head 2.79186 -1.27488 1.3225
rclavicle 5.06901e-015 1.82882e-014
rhumerus -38.6405 -18.7273 -76.0709
rradius 32.5802
rwrist -1.62588
rhand -4.69717 -55.0329
rfingers 7.12502
rthumb 21.0844 -83.9066
lclavicle 5.06901e-015 1.82882e-014
lhumerus -31.9999 8.62056 78.7674
lradius 20.6824
lwrist -6.81047
lhand -21.1072 -12.6485
lfingers 7.12502
lthumb 5.27086 17.2659
rfemur -20.6536 4.26743 18.9527
rtibia 5.71483
rfoot -17.4301 -2.36241
rtoes -20.7362
lfemur -22.7111 -8.44443 -24.1036
ltibia 9.14203
lfoot -7.47989 -2.43215
ltoes -29.8806
70
root 16.7123 17.9689 20.7223 -155.315 -1.28955 176.063
lowerback -31.0566 -2.53613 -9.57583
upperback -0.095616 -0.353943 -0.598061
thorax 16.2054 -1.11613 4.30758
lowerneck -6.85213 -1.95484 -0.308672
upperneck 5.1015 -2.90108 3.8887
head 2.9037 -1.33336 1.17833
rclavicle -2.12203e-014 7.95139e-015
rhumerus -38.7003 -19.1726 -75.9917
rradius 32.4228
rwrist -1.32971
rhand -4.47705 -52.4768
rfingers 7.12502
rthumb 21.2958 -81.3268
lclavicle -2.12203e-014 7.95139e-015
lhumerus -31.9232 8.45273 78.666
lradius 20.4835
lwrist -6.86141
lhand -21.1129 -12.6059
lfingers 7.12502
lthumb 5.26532 17.3087
rfemur -20.5992 4.40721 18.9819
rtibia 5.59379
rfoot -17.2869 -2.39529
rtoes -20.3984
lfemur -22.7111 -8.46879 -24.0345
ltibia 9.10314
lfoot -7.39017 -2.40745
ltoes -29.5574
71
root 16.7143 17.9689 20.7272 -155.399 -1.30392 176.078
lowerback -30.9097 -2.5667 -9.53191
upperback -0.110551 -0.428257 -0.568894
thorax 16.1327 -1.14082 4.28846
lowerneck -6.84504 -1.87978 -0.365601
upperneck 5.17177 -2.79292 3.84313
head 2.92378 -1.28084 1.17885
rclavicle 3.67752e-015 -1.47101e-014
rhumerus -38.7295 -19.0971 -75.9077
rradius 32.2877
rwrist -1.15472
rhand -4.52459 -53.6047
rfingers 7.12502
rthumb 21.2501 -82.4599
lclavicle 3.67752e-015 -1.47101e-014
lhumerus -32.0545 8.8422 78.4906
lradius 20.3117
lwrist -7.06493
lhand -20.8793 -12.6566
lfingers 7.12502
lthumb 5.49085 17.2522
rfemur -20.5609 4.61797 18.9639
rtibia 5.67043
rfoot -17.3948 -2.53855
rtoes -19.6103
lfemur -22.6485 -8.59288 -23.9721
ltibia 9.06433
lfoot -7.29438 -2.26843
ltoes -29.3624
72
root 16.7159 17.9686 20.7295 -155.515 -1.30206 176.107
lowerback -30.8148 -2.55904 -9.51387
upperback -0.0770049 -0.428192 -0.538988
thorax 16.1315 -1.13761 4.31522
lowerneck -6.87553 -1.82984 -0.43653
upperneck 5.18398 -2.72892 3.94742
head 2.93598 -1.24703 1.22845
rclavicle 4.77083e-015 1.74931e-014
rhumerus -38.757 -19.0559 -75.8481
rradius 32.2522
rwrist -1.24221
rhand -4.65315 -54.2137
rfingers 7.12502
rthumb 21.1266 -83.0826
lclavicle 4.77083e-015 1.74931e-014
lhumerus -32.1571 9.04323 78.4441
lradius 20.1934
lwrist -7.32915
lhand -20.838 -12.4655
lfingers 7.12502
lthumb 5.53076 17.4423
rfemur -20.497 4.64158 19.0127
rtibia 5.77041
rfoot -17.51 -2.55071
rtoes -19.1946
lfemur -22.5236 -8.67595 -23.9252
ltibia 9.03687
lfoot -7.31315 -2.15236
ltoes -29.7114
73
root 16.7171 17.9687 20.7283 -155.587 -1.34596 176.158
lowerback -30.8181 -2.57015 -9.50066
upperback -0.00829297 -0.43859 -0.482583
thorax 16.2195 -1.14394 4.36818
lowerneck -6.89415 -1.72466 -0.570385
upperneck 5.02927 -2.58192 4.11101
head 2.88937 -1.17324 1.31217
rclavicle 5.71506e-015 2.18663e-014
rhumerus -38.7048 -19.144 -75.7554
rradius 32.183
rwrist -1.29233
rhand -4.90194 -54.2377
rfingers 7.12502
rthumb 20.8876 -83.1331
lclavicle 5.71506e-015 2.18663e-014
lhumerus -32.1588 9.28283 78.4279
lradius 20.059
lwrist -7.57941
lhand -20.7148 -12.2269
lfingers 7.12502
lthumb 5.6497 17.6778
rfemur -20.4037 4.60294 19.1085
rtibia 5.73126
rfoot -17.4527 -2.55266
rtoes -19.1211
lfemur -22.4268 -8.71416 -23.8542
ltibia 9.03395
lfoot -7.34381 -2.12518
ltoes -29.6284
74
root 16.7188 17.9688 20.7286 -155.614 -1.39017 176.202
lowerback -30.774 -2.54112 -9.42142
upperback -0.00194452 -0.427788 -0.501512
thorax 16.2062 -1.13089 4.31057
lowerneck -6.86951 -1.62353 -0.621479
upperneck 4.91918 -2.44689 4.22464
head 2.84713 -1.10571 1.36449
rclavicle 6.16232e-015 1.94809e-014
rhumerus -38.7023 -19.3654 -75.7062
rradius 32.0321
rwrist -1.13377
rhand -5.03776 -54.0673
rfingers 7.12502
rthumb 20.7571 -82.9771
lclavicle 6.16232e-015 1.94809e-014
lhumerus -32.165 9.31055 78.3334
lradius 19.9203
lwrist -7.6146
lhand -20.785 -11.9467
lfingers 7.12502
lthumb 5.58194 17.9598
rfemur -20.3659 4.63882 19.1752
rtibia 5.69936
rfoot -17.402 -2.63099
rtoes -19.2604
lfemur -22.3824 -8.74014 -23.7782
ltibia 8.98091
lfoot -7.29641 -2.15049
ltoes -29.0819
